<?xml version="1.0" encoding="utf-8"?>
<!-- Generator: Adobe Illustrator 25.4.1, SVG Export Plug-In . SVG Version: 6.00 Build 0)  -->
<svg version="1.1" id="图层_1" xmlns="http://www.w3.org/2000/svg" xmlns:xlink="http://www.w3.org/1999/xlink" x="0px" y="0px"
	 viewBox="0 0 24 24" style="enable-background:new 0 0 24 24;" xml:space="preserve">
<style type="text/css">
	.st0{fill:#212121;}
</style>
<path class="st0" d="M19,1c2.2,0,4,1.8,4,4V19c0,2.2-1.8,4-4,4H5c-2.2,0-4-1.8-4-4V5c0-2.2,1.8-4,4-4H19z M8.8,16H6.7l-0.1,0.1
	l-0.1,0.1c-0.2,0.4,0,0.9,0.4,1.1c0.4,0.2,0.9,0.1,1.2-0.2L8.2,17L8.8,16z M13.6,9.6l-1.1,1.8l3.2,5.6l0.1,0.1
	c0.3,0.4,0.8,0.5,1.2,0.2c0.4-0.2,0.6-0.7,0.4-1.1l-0.1-0.1l-0.6-1.1l1.1,0l0.1,0c0.4-0.1,0.7-0.4,0.8-0.8l0-0.1l0-0.1
	c-0.1-0.4-0.4-0.7-0.8-0.8l-0.1,0l-2.1,0L13.6,9.6z M13.5,6c-0.4-0.2-0.9-0.1-1.2,0.2l-0.1,0.1L12,6.8l-0.3-0.5l-0.1-0.1
	C11.4,5.9,11,5.8,10.6,6L10.5,6l-0.1,0.1C10,6.3,9.9,6.8,10.1,7.1l0.1,0.1l0.8,1.4l-2.7,4.6H6.2l-0.1,0c-0.4,0.1-0.8,0.4-0.8,0.9
	c0,0.5,0.3,0.8,0.8,0.9l0.1,0l7.4,0l-1.1-1.8l-2.1,0l3.5-6l0.1-0.1C14.1,6.7,13.9,6.2,13.5,6z"/>
</svg>
