<?xml version="1.0" encoding="utf-8"?>
<!-- Generator: Adobe Illustrator 25.4.1, SVG Export Plug-In . SVG Version: 6.00 Build 0)  -->
<svg version="1.1" id="图层_1" xmlns="http://www.w3.org/2000/svg" xmlns:xlink="http://www.w3.org/1999/xlink" x="0px" y="0px"
	 viewBox="0 0 24 24" style="enable-background:new 0 0 24 24;" xml:space="preserve">
<style type="text/css">
	.st0{fill:#212121;}
</style>
<path class="st0" d="M19,1c2.2,0,4,1.8,4,4V19c0,2.2-1.8,4-4,4H5c-2.2,0-4-1.8-4-4V5c0-2.2,1.8-4,4-4H19z M19,2.8H5
	c-1.2,0-2.1,1-2.1,2.1V19c0,1.2,1,2.1,2.1,2.1H19c1.2,0,2.1-1,2.1-2.1V5C21.2,3.8,20.2,2.8,19,2.8z M8.8,16L8.2,17
	c-0.3,0.4-0.8,0.6-1.3,0.3c-0.4-0.2-0.6-0.7-0.4-1.1l0.1-0.1L6.7,16H8.8z M13.6,9.6l2.1,3.6l2.1,0c0.5,0,0.8,0.3,0.9,0.8l0,0.1
	c0,0.5-0.3,0.8-0.8,0.9l-0.1,0l-1.1,0l0.6,1.1c0.3,0.4,0.1,1-0.3,1.3c-0.4,0.2-0.9,0.1-1.2-0.2L15.8,17l-3.2-5.6L13.6,9.6z M13.5,6
	c0.4,0.2,0.6,0.7,0.4,1.1l-0.1,0.1l-3.5,6l2.1,0l1.1,1.8l-7.4,0c-0.5,0-0.9-0.4-0.9-0.9c0-0.5,0.3-0.8,0.8-0.9l0.1,0h2.1l2.7-4.6
	l-0.8-1.4C9.9,6.9,10,6.4,10.4,6.1L10.5,6c0.4-0.2,0.9-0.1,1.2,0.2l0.1,0.1L12,6.8l0.3-0.5C12.5,5.9,13.1,5.8,13.5,6z"/>
</svg>
