<svg viewBox="0 0 256 256" fill="currentColor" stroke-width="0">
	<path d="M 127.99805,1.3897628e-6C 57.387077,0.00212929 9.4410044e-7,57.390462 9.4410046e-7,128.00189 9.4410046e-7,198.57009 57.317605,255.91973 127.86914,255.99206A 127.99999,127.99993 0 0 0 128,256a 127.99999,127.99993 0 0 0 0.12695,-0.008c 70.52763,-0.068 127.82253,-57.37514 127.86719,-127.90814a 127.99999,127.99993 0 0 0 0.006,-0.084 127.99999,127.99993 0 0 0 -0.15234,-5.91796c -0.0252,-0.55238 -0.0615,-1.1018 -0.0937,-1.65235a 127.99999,127.99993 0 0 0 -0.33008,-4.33203c -0.055,-0.59413 -0.10486,-1.18948 -0.16797,-1.78124a 127.99999,127.99993 0 0 0 -0.68555,-5.39453 127.99999,127.99993 0 0 0 -0.002,-0.0136c -0.11266,-0.75096 -0.25518,-1.49161 -0.38086,-2.23828a 127.99999,127.99993 0 0 0 -0.57422,-3.20312c -0.18638,-0.95714 -0.38807,-1.90799 -0.5957,-2.85742a 127.99999,127.99993 0 0 0 -0.58594,-2.539064c -0.23944,-0.996438 -0.47564,-1.993201 -0.73828,-2.980466a 127.99999,127.99993 0 0 0 -0.64649,-2.267579c -0.5002,-1.748662 -1.0335,-3.481869 -1.60546,-5.199214a 127.99999,127.99993 0 0 0 -0.84571,-2.496093c -0.30806,-0.86471 -0.63099,-1.722062 -0.95703,-2.578124a 127.99999,127.99993 0 0 0 -1.13686,-2.882882c -0.3014,-0.736883 -0.59937,-1.475112 -0.91406,-2.205078a 127.99999,127.99993 0 0 0 -2.19726,-4.853512 127.99999,127.99993 0 0 0 -0.0293,-0.06444c -0.001,-0.0026 -0.003,-0.0053 -0.004,-0.0079a 127.99999,127.99993 0 0 0 -2.67969,-5.228512c -0.14074,-0.26041 -0.28524,-0.518015 -0.42773,-0.777343a 127.99999,127.99993 0 0 0 -2.68555,-4.666013c -0.0685,-0.113197 -0.13618,-0.226885 -0.20507,-0.339855A 127.99999,127.99993 0 0 0 194.50781,18.660148c -0.13839,-0.08445 -0.27728,-0.168011 -0.41601,-0.251954a 127.99999,127.99993 0 0 0 -4.49805,-2.587888c -0.32527,-0.179218 -0.64763,-0.362596 -0.97461,-0.539062a 127.99999,127.99993 0 0 0 -5.08203,-2.605467 127.99999,127.99993 0 0 0 -0.0176,-0.0078c -0.19965,-0.09644 -0.40525,-0.181912 -0.60547,-0.277345A 127.99999,127.99993 0 0 0 178.61326,10.44139C 177.80101,10.090578 176.979,9.7601162 176.15818,9.425765a 127.99999,127.99993 0 0 0 -2.50976,-0.9921871c -0.9712,-0.3717692 -1.94539,-0.7353902 -2.92774,-1.0839838A 127.99999,127.99993 0 0 0 168.79686,6.697251c -2.11149,-0.7114666 -4.24541,-1.3701106 -6.4043,-1.9726554A 127.99999,127.99993 0 0 0 160.99414,4.3281241C 159.9101,4.0389329 158.8158,3.7768165 157.7207,3.5156246A 127.99999,127.99993 0 0 0 155.57813,3.0214843C 154.5151,2.7873241 153.44965,2.5610086 152.37695,2.3535158A 127.99999,127.99993 0 0 0 149.85156,1.9023442C 148.64344,1.6938179 147.43424,1.4907232 146.21484,1.316407A 127.99999,127.99993 0 0 0 141.8164,0.75586038c -0.71606,-0.0771159 -1.43672,-0.13595143 -2.15624,-0.20117168a 127.99999,127.99993 0 0 0 -3.88477,-0.29687487c -0.66155,-0.0397984 -1.32213,-0.0816497 -1.98633,-0.11132808A 127.99999,127.99993 0 0 0 128.00781,1.3897628e-6a 127.99999,127.99993 0 0 0 -0.008,0 127.99999,127.99993 0 0 0 -0.002,0zM 116.48437,14.001947c 0.81247,0.40314 1.57745,0.814971 2.41602,1.212891 2.14235,1.016591 4.37073,2.016146 6.6875,2.994139 2.31677,0.977992 4.72096,1.936151 7.2168,2.869139 2.49583,0.932988 5.08412,1.841078 7.76367,2.722655 2.67955,0.881577 5.45045,1.736785 8.31836,2.560546 5.7178,1.642345 10.95849,3.259558 15.76172,4.855466 4.80323,1.595908 9.16997,3.169491 13.14258,4.722654 3.97261,1.553162 7.55139,3.085501 10.77734,4.599606 3.22595,1.514112 6.09886,3.00953 8.66211,4.488281 2.56324,1.478743 4.81628,2.94159 6.80078,4.388668 1.9845,1.447082 3.69974,2.879726 5.18945,4.298825 1.48971,1.419106 2.75316,2.823933 3.83204,4.218748 1.07886,1.394823 1.97456,2.778118 2.72656,4.152342 0.75198,1.374232 1.36007,2.740326 1.86914,4.097656 0.50907,1.357326 0.91943,2.706654 1.26953,4.050778 0.7002,2.688245 1.16631,5.354141 1.73438,8.011714 0.28403,1.328791 0.59377,2.655763 0.97069,3.982422 0.37694,1.326655 0.82122,2.652248 1.37501,3.980464 0.55378,1.328224 1.21665,2.658708 2.03124,3.992188 0.81461,1.333474 1.78009,2.671248 2.93946,4.013668 3.91087,4.528374 7.34481,8.711803 10.33984,12.591793 1.06895,1.3848 2.01575,2.68678 2.97461,3.99609 0.84175,5.60978 1.28516,11.35197 1.28516,17.19921 0,16.2532 -3.39133,31.69615 -9.47266,45.69138 -0.64397,0.62637 -1.28796,1.24956 -1.93359,1.9043 -1.82156,1.84729 -3.64236,3.81533 -5.42383,5.9414 -0.89073,1.06304 -1.77094,2.16528 -2.63672,3.3125 -0.86578,1.14723 -1.71601,2.33901 -2.54687,3.58008 -0.83086,1.24106 -1.64175,2.53238 -2.42774,3.87695 -0.78598,1.34457 -1.54813,2.74149 -2.2793,4.19922 -0.73115,1.45773 -1.43128,2.97609 -2.09765,4.55663 -0.66637,1.58055 -1.299,3.22448 -1.89062,4.9375 -0.0169,0.0489 -0.032,0.0899 -0.0488,0.13867 -13.00028,13.94014 -29.43796,24.61498 -47.98243,30.70116 -0.68364,-0.27719 -1.29423,-0.55467 -2.00586,-0.82813 -2.24621,-0.86315 -4.63476,-1.7006 -7.18945,-2.46093 -2.55468,-0.76034 -5.27435,-1.44256 -8.17968,-1.99805 -1.45267,-0.27776 -2.95177,-0.52502 -4.5,-0.73242 -1.54824,-0.20739 -3.14585,-0.37569 -4.79493,-0.5 -1.64907,-0.12431 -3.35028,-0.20394 -5.10546,-0.23244 -1.7552,-0.0283 -3.56507,-0.006 -5.43165,0.0742 -1.86657,0.0801 -3.7902,0.21842 -5.77343,0.41992 -1.98324,0.20149 -4.0257,0.46713 -6.13086,0.80273 -2.10517,0.33562 -4.11257,0.61868 -6.02735,0.85157 -1.91478,0.23289 -3.73778,0.41564 -5.47265,0.55078 -1.73487,0.13515 -3.38183,0.22129 -4.947269,0.26366 -1.565435,0.0424 -3.048605,0.0396 -4.455077,-0.006 -1.406479,-0.0454 -2.736158,-0.13349 -3.99414,-0.26173 -1.257989,-0.12824 -2.444485,-0.29586 -3.564454,-0.50196 -1.119972,-0.20606 -2.173587,-0.44958 -3.166015,-0.72851 -0.992432,-0.27893 -1.92347,-0.59459 -2.798827,-0.94141 -0.875365,-0.34681 -1.694125,-0.72504 -2.462892,-1.13476 -0.768767,-0.40973 -1.487512,-0.85071 -2.160158,-1.31836 -0.672643,-0.46765 -1.29972,-0.96183 -1.886718,-1.48242 -0.586998,-0.52061 -1.134659,-1.06619 -1.646483,-1.63477 -1.023651,-1.13715 -1.907562,-2.36684 -2.693359,-3.66601 -0.785798,-1.29918 -1.473737,-2.66846 -2.105469,-4.08984 -0.631733,-1.42139 -1.206119,-2.89466 -1.76758,-4.39844 -0.56146,-1.50377 -1.108618,-3.03764 -1.683594,-4.58398 -0.574972,-1.54635 -1.17733,-3.1052 -1.84961,-4.6543 -0.672272,-1.54909 -1.414205,-3.08953 -2.267577,-4.60156 -0.853372,-1.51202 -1.819249,-2.99454 -2.937498,-4.42968 -0.559128,-0.71757 -1.155817,-1.42435 -1.796878,-2.11524 -0.641057,-0.69088 -1.327083,-1.36617 -2.060545,-2.02538 -0.733463,-0.65922 -1.51522,-1.30126 -2.351562,-1.92383 -0.836341,-0.62258 -1.726091,-1.22569 -2.675781,-1.80664 -0.949693,-0.58096 -1.959688,-1.13947 -3.033203,-1.67383 -1.073522,-0.53436 -2.21015,-1.04456 -3.41797,-1.52734 -2.039977,-0.81542 -3.992233,-1.65301 -5.859375,-2.51172 -1.867142,-0.85871 -3.64925,-1.73792 -5.349609,-2.63672 -1.70036,-0.8988 -3.319745,-1.81822 -4.859375,-2.7539 -0.81834,-0.49733 -1.555997,-1.01272 -2.330079,-1.51953 -6.201716,-14.10958 -9.667968,-29.70149 -9.667968,-46.12303 0,-16.57379 3.532928,-32.302511 9.84375,-46.515599 1.399743,-1.439103 2.867685,-2.923403 4.46875,-4.498044 4.619437,-4.543194 10.001358,-9.623942 15.71875,-15.078115 2.858695,-2.727094 5.802421,-5.547633 8.77539,-8.441404 2.972969,-2.893772 5.976594,-5.861107 8.957031,-8.880854 2.980437,-3.01975 5.937263,-6.092248 8.818359,-9.197262 2.881096,-3.105017 5.686383,-6.241044 8.361328,-9.39062 0.595964,-0.701519 1.159646,-1.404462 1.742159,-2.107194 11.258214,-5.178177 23.491868,-8.609258 36.371088,-9.890621z" />
</svg>